<?xml version="1.0" encoding="UTF-8" standalone="no"?>
<!-- Created with Inkscape (http://www.inkscape.org/) -->

<svg
   xmlns:dc="http://purl.org/dc/elements/1.1/"
   xmlns:cc="http://creativecommons.org/ns#"
   xmlns:rdf="http://www.w3.org/1999/02/22-rdf-syntax-ns#"
   xmlns:svg="http://www.w3.org/2000/svg"
   xmlns="http://www.w3.org/2000/svg"
   xmlns:sodipodi="http://sodipodi.sourceforge.net/DTD/sodipodi-0.dtd"
   xmlns:inkscape="http://www.inkscape.org/namespaces/inkscape"
   width="644"
   height="88"
   viewBox="0 0 644.00001 88"
   id="svg2"
   version="1.1"
   inkscape:version="0.91 r13725"
   sodipodi:docname="LudumDare-Logo2016.svg">
  <title
     id="title4159">ludum-dare</title>
  <defs
     id="defs4" />
  <sodipodi:namedview
     id="base"
     pagecolor="#ffffff"
     bordercolor="#666666"
     borderopacity="1.0"
     inkscape:pageopacity="0.0"
     inkscape:pageshadow="2"
     inkscape:zoom="1.3453125"
     inkscape:cx="344.22793"
     inkscape:cy="-101.36636"
     inkscape:document-units="px"
     inkscape:current-layer="layer1"
     showgrid="false"
     units="px"
     inkscape:window-width="1366"
     inkscape:window-height="744"
     inkscape:window-x="0"
     inkscape:window-y="24"
     inkscape:window-maximized="1">
    <inkscape:grid
       type="xygrid"
       id="grid4161" />
  </sodipodi:namedview>
  <metadata
     id="metadata7">
    <rdf:RDF>
      <cc:Work
         rdf:about="">
        <dc:format>image/svg+xml</dc:format>
        <dc:type
           rdf:resource="http://purl.org/dc/dcmitype/StillImage" />
        <dc:title>ludum-dare</dc:title>
      </cc:Work>
    </rdf:RDF>
  </metadata>
  <g
     inkscape:label="Layer 1"
     inkscape:groupmode="layer"
     id="layer1"
     transform="translate(0,-964.36214)">
    <path
       inkscape:connector-curvature="0"
       id="path4141"
       style="font-style:normal;font-variant:normal;font-weight:normal;font-stretch:normal;font-size:medium;line-height:125%;font-family:'Null Free';-inkscape-font-specification:'Null Free';letter-spacing:0px;word-spacing:0px;fill:#000000;fill-opacity:1;stroke:none;stroke-width:1px;stroke-linecap:butt;stroke-linejoin:miter;stroke-opacity:1"
       d="m 1.9999981,1046.4627 57.6515969,0 0,-28.2671 -28.602348,0 0,-49.94237 -29.0492489,0 0,78.20947 z" />
    <path
       inkscape:connector-curvature="0"
       id="path4143"
       style="font-style:normal;font-variant:normal;font-weight:normal;font-stretch:normal;font-size:medium;line-height:125%;font-family:'Null Free';-inkscape-font-specification:'Null Free';letter-spacing:0px;word-spacing:0px;fill:#000000;fill-opacity:1;stroke:none;stroke-width:1px;stroke-linecap:butt;stroke-linejoin:miter;stroke-opacity:1"
       d="m 99.108994,1014.732 c 0,7.821 -9.720325,7.821 -9.720325,0 l 0,-30.50168 0,-0.44691 -27.708514,0 0,32.06589 c 0,43.2387 65.137355,43.2387 65.137355,0 l 0,-32.06589 -27.708516,0 0,0.44691 0,30.50168 z" />
    <path
       style="font-style:normal;font-variant:normal;font-weight:normal;font-stretch:normal;font-size:medium;line-height:125%;font-family:'Null Free';-inkscape-font-specification:'Null Free';letter-spacing:0px;word-spacing:0px;fill:#000000;fill-opacity:1;stroke:none;stroke-width:1px;stroke-linecap:butt;stroke-linejoin:miter;stroke-opacity:1"
       d="m 168.5293,968.25276 0,46.92574 c -2e-5,3.1284 -2.45911,5.6993 -5.69922,5.6993 -3.12838,0 -5.58594,-2.5709 -5.58594,-5.6993 0,-3.0265 2.30252,-5.522 5.28516,-5.6816 l 0,-27.49414 c -18.18299,0.1624 -32.76953,14.95338 -32.76953,33.17574 0,18.3234 14.74694,33.1836 33.07031,33.1836 18.32338,0 33.18359,-14.8602 33.18359,-33.1836 l 0,-46.92574 -27.48437,0 z"
       id="path4145"
       inkscape:connector-curvature="0" />
    <path
       inkscape:connector-curvature="0"
       id="path4147"
       style="font-style:normal;font-variant:normal;font-weight:normal;font-stretch:normal;font-size:medium;line-height:125%;font-family:'Null Free';-inkscape-font-specification:'Null Free';letter-spacing:0px;word-spacing:0px;fill:#000000;fill-opacity:1;stroke:none;stroke-width:1px;stroke-linecap:butt;stroke-linejoin:miter;stroke-opacity:1"
       d="m 236.58666,1014.732 c 0,7.821 -9.72033,7.821 -9.72033,0 l 0,-30.50168 0,-0.44691 -27.70851,0 0,32.06589 c 0,43.2387 65.13735,43.2387 65.13735,0 l 0,-32.06589 -27.70851,0 0,0.44691 0,30.50168 z" />
    <path
       inkscape:connector-curvature="0"
       id="path4149"
       style="font-style:normal;font-variant:normal;font-weight:normal;font-stretch:normal;font-size:medium;line-height:125%;font-family:'Null Free';-inkscape-font-specification:'Null Free';letter-spacing:0px;word-spacing:0px;fill:#000000;fill-opacity:1;stroke:none;stroke-width:1px;stroke-linecap:butt;stroke-linejoin:miter;stroke-opacity:1"
       d="m 330.25127,1014.732 c 0,-6.9271 8.71477,-6.8154 8.71477,-0.1117 l 0,31.3955 0,0.4469 27.48506,0 0,-32.9597 c 0,-22.90419 -16.53572,-31.73069 -32.17763,-31.61896 -6.14503,0.11172 -12.96043,2.34628 -17.31782,7.03885 -5.02775,-5.02775 -11.39624,-7.03885 -17.653,-7.03885 -15.53018,0 -31.84245,8.15613 -31.84245,31.61896 l 0,32.9597 27.48506,0 0,-31.8424 c 0,-6.7037 8.60305,-6.8154 8.60305,0.1117 l 0,31.7307 26.70296,0 0,-31.7307 z" />
    <path
       inkscape:connector-curvature="0"
       id="path4151"
       style="font-style:normal;font-variant:normal;font-weight:normal;font-stretch:normal;font-size:medium;line-height:125%;font-family:'Null Free';-inkscape-font-specification:'Null Free';letter-spacing:0px;word-spacing:0px;fill:#000000;fill-opacity:1;stroke:none;stroke-width:1px;stroke-linecap:butt;stroke-linejoin:miter;stroke-opacity:1"
       d="m 389.40832,1046.4627 c 14.07771,0 23.12767,0 37.09365,0 50.50101,0 50.50101,-78.20947 0,-78.20947 -13.96598,0 -23.01594,0 -37.09365,0 0,26.0326 0,52.17697 0,78.20947 z m 28.93752,-30.2782 c 0,-4.8043 0,-13.1839 0,-17.9882 l 8.71477,0 c 9.94378,0 10.05551,17.9882 0,17.9882 l -8.71477,0 z" />
    <path
       style="font-style:normal;font-variant:normal;font-weight:normal;font-stretch:normal;font-size:medium;line-height:125%;font-family:'Null Free';-inkscape-font-specification:'Null Free';letter-spacing:0px;word-spacing:0px;fill:#000000;fill-opacity:1;stroke:none;stroke-width:1px;stroke-linecap:butt;stroke-linejoin:miter;stroke-opacity:1"
       d="m 498.94727,981.88362 c -17.87646,0 -32.28907,14.41257 -32.28907,32.28908 0,17.5896 14.13204,31.993 31.76368,32.2754 l 0,-26.7168 c -2.87341,-0.2689 -5.06055,-2.7134 -5.06055,-5.5586 0,-3.0167 2.45756,-5.586 5.58594,-5.586 3.01665,0 5.4746,2.5693 5.47461,5.586 l 0,32.2891 26.81445,0 0,-32.2891 c 0,-17.87651 -14.52433,-32.28908 -32.28906,-32.28908 z"
       id="path4153"
       inkscape:connector-curvature="0" />
    <path
       inkscape:connector-curvature="0"
       id="path4155"
       style="font-style:normal;font-variant:normal;font-weight:normal;font-stretch:normal;font-size:medium;line-height:125%;font-family:'Null Free';-inkscape-font-specification:'Null Free';letter-spacing:0px;word-spacing:0px;fill:#000000;fill-opacity:1;stroke:none;stroke-width:1px;stroke-linecap:butt;stroke-linejoin:miter;stroke-opacity:1"
       d="m 564.13676,983.78341 c -17.54128,0 -29.83135,11.50797 -29.83135,29.04929 0,14.9715 0,18.6585 0,33.63 l 27.48506,0 c 0,-16.3122 0,-18.4351 0,-34.7473 0,-1.0056 0.55864,-1.6759 1.67592,-1.6759 l 10.61415,0 0,-26.25609 -9.94378,0 z" />
    <path
       inkscape:connector-curvature="0"
       style="font-style:normal;font-variant:normal;font-weight:normal;font-stretch:normal;font-size:medium;line-height:125%;font-family:'Null Free';-inkscape-font-specification:'Null Free';letter-spacing:0px;word-spacing:0px;fill:#000000;fill-opacity:1;stroke:none;stroke-width:1px;stroke-linecap:butt;stroke-linejoin:miter;stroke-opacity:1"
       d="m 576.65818,1014.1727 c 0,-17.8764 14.4126,-32.28906 32.2891,-32.28906 17.5896,0 31.99297,14.13206 32.27538,31.76366 l -26.71678,0 c -0.2689,-2.8734 -2.7134,-5.0605 -5.5586,-5.0605 -3.0167,0 -5.5859,2.4575 -5.5859,5.5859 0,3.0167 2.5692,5.4746 5.5859,5.4746 l 32.28907,0 0,26.8145 -32.28907,0 c -17.8765,0 -32.2891,-14.5244 -32.2891,-32.2891 z"
       id="path4153-7" />
  </g>
</svg>
