<?xml version="1.0" encoding="UTF-8" standalone="no"?>
<!-- Created with Inkscape (http://www.inkscape.org/) -->

<svg
   xmlns:dc="http://purl.org/dc/elements/1.1/"
   xmlns:cc="http://creativecommons.org/ns#"
   xmlns:rdf="http://www.w3.org/1999/02/22-rdf-syntax-ns#"
   xmlns:svg="http://www.w3.org/2000/svg"
   xmlns="http://www.w3.org/2000/svg"
   xmlns:sodipodi="http://sodipodi.sourceforge.net/DTD/sodipodi-0.dtd"
   xmlns:inkscape="http://www.inkscape.org/namespaces/inkscape"
   width="636"
   height="82"
   viewBox="0 0 636.00001 82"
   id="svg2"
   version="1.1"
   inkscape:version="0.91 r13725"
   sodipodi:docname="LudumDare-Logo2016.svg">
  <title
     id="title4159">ludum-dare</title>
  <defs
     id="defs4" />
  <sodipodi:namedview
     id="base"
     pagecolor="#ffffff"
     bordercolor="#666666"
     borderopacity="1.0"
     inkscape:pageopacity="0.0"
     inkscape:pageshadow="2"
     inkscape:zoom="1.3453125"
     inkscape:cx="277.16925"
     inkscape:cy="80.190253"
     inkscape:document-units="px"
     inkscape:current-layer="layer1"
     showgrid="false"
     units="px"
     inkscape:window-width="1366"
     inkscape:window-height="744"
     inkscape:window-x="0"
     inkscape:window-y="24"
     inkscape:window-maximized="1"
     showguides="true"
     inkscape:guide-bbox="true">
    <inkscape:grid
       type="xygrid"
       id="grid4161" />
  </sodipodi:namedview>
  <metadata
     id="metadata7">
    <rdf:RDF>
      <cc:Work
         rdf:about="">
        <dc:format>image/svg+xml</dc:format>
        <dc:type
           rdf:resource="http://purl.org/dc/dcmitype/StillImage" />
        <dc:title>ludum-dare</dc:title>
      </cc:Work>
    </rdf:RDF>
  </metadata>
  <g
     inkscape:label="Layer 1"
     inkscape:groupmode="layer"
     id="layer1"
     transform="translate(0,-970.36214)">
    <path
       inkscape:connector-curvature="0"
       id="path4143-6"
       style="font-style:normal;font-variant:normal;font-weight:normal;font-stretch:normal;font-size:medium;line-height:125%;font-family:'Null Free';-inkscape-font-specification:'Null Free';letter-spacing:0px;word-spacing:0px;fill:#000000;fill-opacity:1;stroke:none;stroke-width:1px;stroke-linecap:butt;stroke-linejoin:miter;stroke-opacity:1"
       d="m 34.014099,1020.1708 c -2.430082,0 -4.860163,-1.9553 -4.860163,-5.8658 l 0,-42.18532 L 0,972.25314 0,1017.9807 c 0,21.6194 16.284342,32.4825 32.568685,32.4825 l 25.083315,-2e-4 0,-30.2919 z"
       sodipodi:nodetypes="ccccscccc" />
    <path
       inkscape:connector-curvature="0"
       id="path4143"
       style="font-style:normal;font-variant:normal;font-weight:normal;font-stretch:normal;font-size:medium;line-height:125%;font-family:'Null Free';-inkscape-font-specification:'Null Free';letter-spacing:0px;word-spacing:0px;fill:#000000;fill-opacity:1;stroke:none;stroke-width:1px;stroke-linecap:butt;stroke-linejoin:miter;stroke-opacity:1"
       d="m 98.320582,1018.732 c 0,7.821 -9.720325,7.821 -9.720325,0 0,-10.3162 0,-20.63239 0,-30.94859 l -27.708514,0 0,32.06589 c 0,43.2387 65.137367,43.2387 65.137367,0 l 0,-32.06589 -27.708528,0 c 0,10.3162 0,20.63239 0,30.94859 z"
       sodipodi:nodetypes="ccccssccc" />
    <path
       style="font-style:normal;font-variant:normal;font-weight:normal;font-stretch:normal;font-size:medium;line-height:125%;font-family:'Null Free';-inkscape-font-specification:'Null Free';letter-spacing:0px;word-spacing:0px;fill:#000000;fill-opacity:1;stroke:none;stroke-width:1px;stroke-linecap:butt;stroke-linejoin:miter;stroke-opacity:1"
       d="m 167.7409,972.25276 0,13.5586 -6,0.1914 c -18.18299,0.1624 -32.76953,14.95344 -32.76953,33.17574 0,18.3234 14.74694,33.1836 33.07031,33.1836 18.32338,0 33.18359,-14.8602 33.18359,-33.1836 l 0,-46.92574 -27.48437,0 z m -6,41.24414 6,0 0,5.6816 c -2e-5,3.1284 -2.45911,5.6993 -5.69922,5.6993 -3.12838,0 -5.58594,-2.5709 -5.58594,-5.6993 0,-3.0265 2.30252,-5.522 5.28516,-5.6816 z"
       id="path4145"
       inkscape:connector-curvature="0" />
    <path
       inkscape:connector-curvature="0"
       id="path4147"
       style="font-style:normal;font-variant:normal;font-weight:normal;font-stretch:normal;font-size:medium;line-height:125%;font-family:'Null Free';-inkscape-font-specification:'Null Free';letter-spacing:0px;word-spacing:0px;fill:#000000;fill-opacity:1;stroke:none;stroke-width:1px;stroke-linecap:butt;stroke-linejoin:miter;stroke-opacity:1"
       d="m 235.79826,1018.732 c 0,7.821 -9.72033,7.821 -9.72033,0 0,-10.3162 0,-20.63239 0,-30.94859 l -27.70851,0 0,32.06589 c 0,43.2387 65.13735,43.2387 65.13735,0 l 0,-32.06589 -27.70851,0 c 0,10.3162 0,20.63239 0,30.94859 z"
       sodipodi:nodetypes="ccccssccc" />
    <path
       inkscape:connector-curvature="0"
       id="path4149"
       style="font-style:normal;font-variant:normal;font-weight:normal;font-stretch:normal;font-size:medium;line-height:125%;font-family:'Null Free';-inkscape-font-specification:'Null Free';letter-spacing:0px;word-spacing:0px;fill:#000000;fill-opacity:1;stroke:none;stroke-width:1px;stroke-linecap:butt;stroke-linejoin:miter;stroke-opacity:1"
       d="m 329.46287,1018.732 c 0,-6.9271 8.71477,-6.8154 8.71477,-0.1117 l 0,31.3955 0,0.4469 27.48506,0 0,-32.9597 c 0,-22.90419 -16.53572,-31.73069 -32.17763,-31.61896 -6.14503,0.11172 -12.96043,2.34628 -17.31782,7.03885 -5.02775,-5.02775 -11.39624,-7.03885 -17.653,-7.03885 -15.53018,0 -31.84245,8.15613 -31.84245,31.61896 l 0,32.9597 27.48506,0 0,-31.8424 c 0,-6.7037 8.60305,-6.8154 8.60305,0.1117 l 0,31.7307 26.70296,0 0,-31.7307 z" />
    <path
       inkscape:connector-curvature="0"
       id="path4151"
       style="font-style:normal;font-variant:normal;font-weight:normal;font-stretch:normal;font-size:medium;line-height:125%;font-family:'Null Free';-inkscape-font-specification:'Null Free';letter-spacing:0px;word-spacing:0px;fill:#000000;fill-opacity:1;stroke:none;stroke-width:1px;stroke-linecap:butt;stroke-linejoin:miter;stroke-opacity:1"
       d="m 386.61992,1050.4627 33.09365,0 c 50.50101,0 50.50101,-78.20947 0,-78.20947 l -33.09365,0 z m 28.93752,-30.2782 0,-17.9882 4.71477,0 c 9.94378,0 10.05551,17.9882 0,17.9882 z"
       sodipodi:nodetypes="cssccccssc" />
    <path
       style="font-style:normal;font-variant:normal;font-weight:normal;font-stretch:normal;font-size:medium;line-height:125%;font-family:'Null Free';-inkscape-font-specification:'Null Free';letter-spacing:0px;word-spacing:0px;fill:#000000;fill-opacity:1;stroke:none;stroke-width:1px;stroke-linecap:butt;stroke-linejoin:miter;stroke-opacity:1"
       d="m 492.15887,985.88362 c -12.56007,-0.17879 -24.71378,7.77743 -29.60352,19.34178 -5.11286,11.3948 -2.76972,25.6319 5.79297,34.7403 6.4157,7.1378 16.10855,10.9705 25.66016,10.4863 1.20841,0 2.41658,0 3.625,0 l 0,0.01 26.81445,0 c -0.0409,-11.4554 0.0831,-22.9139 -0.0664,-34.3671 -0.64579,-12.787 -9.7352,-24.55669 -21.89258,-28.51762 -3.32002,-1.12424 -6.82531,-1.69524 -10.33007,-1.69336 z m -0.13086,26.72658 c 2.35881,0.016 4.74105,1.4822 5.35937,3.9277 0.35898,2.3729 0.27063,4.7894 0.23438,7.2012 -2.17556,0.014 -4.35195,0.016 -6.51954,-0.082 -4.23948,-0.616 -6.08765,-6.5054 -2.91015,-9.4082 1.01264,-1.1358 2.42065,-1.6483 3.83594,-1.6387 z"
       id="path4153"
       inkscape:connector-curvature="0" />
    <path
       inkscape:connector-curvature="0"
       id="path4155"
       style="font-style:normal;font-variant:normal;font-weight:normal;font-stretch:normal;font-size:medium;line-height:125%;font-family:'Null Free';-inkscape-font-specification:'Null Free';letter-spacing:0px;word-spacing:0px;fill:#000000;fill-opacity:1;stroke:none;stroke-width:1px;stroke-linecap:butt;stroke-linejoin:miter;stroke-opacity:1"
       d="m 557.34836,987.78341 c -17.54128,0 -29.83135,11.50797 -29.83135,29.04929 l 0,33.63 27.48506,0 0,-30.7473 c 0,-3.437 2.162,-5.6759 5.67592,-5.6759 l 6.61415,0 0,-26.25609 z"
       sodipodi:nodetypes="ssccssccs" />
    <path
       style="font-style:normal;font-variant:normal;font-weight:normal;font-stretch:normal;font-size:medium;line-height:125%;font-family:'Null Free';-inkscape-font-specification:'Null Free';letter-spacing:0px;word-spacing:0px;fill:#000000;fill-opacity:1;stroke:none;stroke-width:1px;stroke-linecap:butt;stroke-linejoin:miter;stroke-opacity:1"
       d="m 602.15887,985.88362 c -12.56008,-0.17879 -24.71305,7.77675 -29.60279,19.34108 -5.14833,11.4682 -2.73461,25.8111 5.94851,34.9169 6.44915,7.0808 16.13737,10.8291 25.66348,10.3201 l 30.27986,0 c -7.97526,-8.9101 -15.95052,-17.8203 -23.92578,-26.7304 l 23.94685,0 c 0,0 0,-3.6845 0,-5.5351 0,-10.9169 -5.79163,-21.74207 -15.21176,-27.4388 -5.09231,-3.19432 -11.09124,-4.8842 -17.09837,-4.87378 z m 0,26.70308 c 4.09124,-0.167 7.0783,4.8634 4.84643,8.3498 -1.94525,3.8851 -8.09485,3.4531 -9.85066,-0.3605 -1.67925,-3.4403 1.04715,-8.0998 5.00423,-7.9893 z"
       id="path4153-7"
       inkscape:connector-curvature="0"
       sodipodi:nodetypes="cccccccccccccc" />
  </g>
</svg>
